<svg xmlns="http://www.w3.org/2000/svg" xmlns:xlink="http://www.w3.org/1999/xlink" width="150" zoomAndPan="magnify" viewBox="0 0 345 181.5" height="79" preserveAspectRatio="xMidYMid meet" version="1.0"><defs><g/><clipPath id="c41f2d9366"><path d="M 134 0.507812 L 198 0.507812 L 198 113.238281 L 134 113.238281 Z M 134 0.507812 " clip-rule="nonzero"/></clipPath><clipPath id="4f8a1e4dfd"><path d="M 3 27 L 63.609375 27 L 63.609375 95 L 3 95 Z M 3 27 " clip-rule="nonzero"/></clipPath><clipPath id="bb8a5e7f91"><rect x="0" width="64" y="0" height="114"/></clipPath><clipPath id="cd8c2d46b0"><rect x="0" width="284" y="0" height="114"/></clipPath></defs><g transform="matrix(1, 0, 0, 1, 30, 33)"><g clip-path="url(#cd8c2d46b0)"><g fill="#d5312d" fill-opacity="1"><g transform="translate(0.453619, 77.15142)"><g><path d="M 30.203125 -20.921875 C 32.660156 -20.347656 34.570312 -19.164062 35.9375 -17.375 C 37.300781 -15.59375 37.984375 -13.53125 37.984375 -11.1875 C 37.984375 -7.613281 36.800781 -4.851562 34.4375 -2.90625 C 32.070312 -0.96875 28.679688 0 24.265625 0 L 2.875 0 L 2.875 -40.8125 L 23.6875 -40.8125 C 27.84375 -40.8125 31.109375 -39.90625 33.484375 -38.09375 C 35.867188 -36.289062 37.0625 -33.660156 37.0625 -30.203125 C 37.0625 -27.816406 36.4375 -25.804688 35.1875 -24.171875 C 33.9375 -22.546875 32.273438 -21.460938 30.203125 -20.921875 Z M 15.671875 -24.90625 L 20.640625 -24.90625 C 21.785156 -24.90625 22.632812 -25.132812 23.1875 -25.59375 C 23.75 -26.050781 24.03125 -26.757812 24.03125 -27.71875 C 24.03125 -28.71875 23.75 -29.457031 23.1875 -29.9375 C 22.632812 -30.425781 21.785156 -30.671875 20.640625 -30.671875 L 15.671875 -30.671875 Z M 21.5 -10.265625 C 22.65625 -10.265625 23.507812 -10.484375 24.0625 -10.921875 C 24.625 -11.359375 24.90625 -12.078125 24.90625 -13.078125 C 24.90625 -15.046875 23.769531 -16.03125 21.5 -16.03125 L 15.671875 -16.03125 L 15.671875 -10.265625 Z M 21.5 -10.265625 "/></g></g></g><g fill="#d5312d" fill-opacity="1"><g transform="translate(38.602963, 77.15142)"><g><path d="M 15.390625 -40.8125 L 15.390625 -17.8125 C 15.390625 -15.925781 15.800781 -14.4375 16.625 -13.34375 C 17.457031 -12.25 18.796875 -11.703125 20.640625 -11.703125 C 22.484375 -11.703125 23.84375 -12.25 24.71875 -13.34375 C 25.601562 -14.4375 26.046875 -15.925781 26.046875 -17.8125 L 26.046875 -40.8125 L 38.796875 -40.8125 L 38.796875 -17.8125 C 38.796875 -13.925781 37.988281 -10.609375 36.375 -7.859375 C 34.757812 -5.117188 32.546875 -3.054688 29.734375 -1.671875 C 26.929688 -0.285156 23.800781 0.40625 20.34375 0.40625 C 16.882812 0.40625 13.816406 -0.285156 11.140625 -1.671875 C 8.472656 -3.054688 6.390625 -5.113281 4.890625 -7.84375 C 3.398438 -10.570312 2.65625 -13.894531 2.65625 -17.8125 L 2.65625 -40.8125 Z M 15.390625 -40.8125 "/></g></g></g><g fill="#d5312d" fill-opacity="1"><g transform="translate(78.769283, 77.15142)"><g><path d="M 23.40625 0 L 15.734375 -14.640625 L 15.671875 -14.640625 L 15.671875 0 L 2.875 0 L 2.875 -40.8125 L 21.90625 -40.8125 C 25.207031 -40.8125 28.03125 -40.222656 30.375 -39.046875 C 32.71875 -37.878906 34.472656 -36.285156 35.640625 -34.265625 C 36.816406 -32.242188 37.40625 -29.96875 37.40625 -27.4375 C 37.40625 -24.707031 36.644531 -22.285156 35.125 -20.171875 C 33.613281 -18.054688 31.4375 -16.539062 28.59375 -15.625 L 37.46875 0 Z M 15.671875 -23.171875 L 20.75 -23.171875 C 21.976562 -23.171875 22.898438 -23.445312 23.515625 -24 C 24.128906 -24.5625 24.4375 -25.4375 24.4375 -26.625 C 24.4375 -27.707031 24.117188 -28.554688 23.484375 -29.171875 C 22.847656 -29.785156 21.9375 -30.09375 20.75 -30.09375 L 15.671875 -30.09375 Z M 15.671875 -23.171875 "/></g></g></g><g fill="#d5312d" fill-opacity="1"><g transform="translate(116.111843, 77.15142)"><g><path d="M 15.671875 -40.8125 L 15.671875 0 L 2.875 0 L 2.875 -40.8125 Z M 15.671875 -40.8125 "/></g></g></g><g fill="#f7aa45" fill-opacity="1"><g transform="translate(198.288539, 77.15142)"><g><path d="M 15.390625 -40.8125 L 15.390625 -17.8125 C 15.390625 -15.925781 15.800781 -14.4375 16.625 -13.34375 C 17.457031 -12.25 18.796875 -11.703125 20.640625 -11.703125 C 22.484375 -11.703125 23.84375 -12.25 24.71875 -13.34375 C 25.601562 -14.4375 26.046875 -15.925781 26.046875 -17.8125 L 26.046875 -40.8125 L 38.796875 -40.8125 L 38.796875 -17.8125 C 38.796875 -13.925781 37.988281 -10.609375 36.375 -7.859375 C 34.757812 -5.117188 32.546875 -3.054688 29.734375 -1.671875 C 26.929688 -0.285156 23.800781 0.40625 20.34375 0.40625 C 16.882812 0.40625 13.816406 -0.285156 11.140625 -1.671875 C 8.472656 -3.054688 6.390625 -5.113281 4.890625 -7.84375 C 3.398438 -10.570312 2.65625 -13.894531 2.65625 -17.8125 L 2.65625 -40.8125 Z M 15.390625 -40.8125 "/></g></g></g><g fill="#f7aa45" fill-opacity="1"><g transform="translate(238.454859, 77.15142)"><g><path d="M 22.765625 0.40625 C 18.921875 0.40625 15.394531 -0.492188 12.1875 -2.296875 C 8.976562 -4.109375 6.429688 -6.609375 4.546875 -9.796875 C 2.671875 -12.984375 1.734375 -16.578125 1.734375 -20.578125 C 1.734375 -24.578125 2.671875 -28.171875 4.546875 -31.359375 C 6.429688 -34.546875 8.976562 -37.03125 12.1875 -38.8125 C 15.394531 -40.601562 18.921875 -41.5 22.765625 -41.5 C 26.609375 -41.5 30.125 -40.601562 33.3125 -38.8125 C 36.5 -37.03125 39.023438 -34.546875 40.890625 -31.359375 C 42.753906 -28.171875 43.6875 -24.578125 43.6875 -20.578125 C 43.6875 -16.578125 42.753906 -12.984375 40.890625 -9.796875 C 39.023438 -6.609375 36.488281 -4.109375 33.28125 -2.296875 C 30.070312 -0.492188 26.566406 0.40625 22.765625 0.40625 Z M 22.765625 -11.53125 C 25.304688 -11.53125 27.265625 -12.34375 28.640625 -13.96875 C 30.023438 -15.601562 30.71875 -17.804688 30.71875 -20.578125 C 30.71875 -23.378906 30.023438 -25.597656 28.640625 -27.234375 C 27.265625 -28.867188 25.304688 -29.6875 22.765625 -29.6875 C 20.191406 -29.6875 18.210938 -28.867188 16.828125 -27.234375 C 15.441406 -25.597656 14.75 -23.378906 14.75 -20.578125 C 14.75 -17.804688 15.441406 -15.601562 16.828125 -13.96875 C 18.210938 -12.34375 20.191406 -11.53125 22.765625 -11.53125 Z M 22.765625 -11.53125 "/></g></g></g><g clip-path="url(#c41f2d9366)"><g transform="matrix(1, 0, 0, 1, 134, -0.000000000000007105)"><g clip-path="url(#bb8a5e7f91)"><g clip-path="url(#4f8a1e4dfd)"><g fill="#f7aa45" fill-opacity="1"><g transform="translate(1.010985, 84.826705)"><g><path d="M 41.25 9.1875 L 35.8125 0.234375 C 34.582031 0.453125 33.171875 0.5625 31.578125 0.5625 C 26.242188 0.5625 21.351562 -0.6875 16.90625 -3.1875 C 12.457031 -5.695312 8.925781 -9.160156 6.3125 -13.578125 C 3.695312 -18.003906 2.390625 -22.988281 2.390625 -28.53125 C 2.390625 -34.070312 3.695312 -39.054688 6.3125 -43.484375 C 8.925781 -47.910156 12.457031 -51.363281 16.90625 -53.84375 C 21.351562 -56.320312 26.242188 -57.5625 31.578125 -57.5625 C 36.898438 -57.5625 41.773438 -56.320312 46.203125 -53.84375 C 50.628906 -51.363281 54.132812 -47.910156 56.71875 -43.484375 C 59.300781 -39.054688 60.59375 -34.070312 60.59375 -28.53125 C 60.59375 -24.007812 59.710938 -19.84375 57.953125 -16.03125 C 56.191406 -12.21875 53.769531 -8.976562 50.6875 -6.3125 L 62.1875 9.1875 Z M 20.46875 -28.53125 C 20.46875 -24.695312 21.425781 -21.644531 23.34375 -19.375 C 25.257812 -17.113281 28.003906 -15.984375 31.578125 -15.984375 C 35.085938 -15.984375 37.800781 -17.113281 39.71875 -19.375 C 41.644531 -21.644531 42.609375 -24.695312 42.609375 -28.53125 C 42.609375 -32.425781 41.644531 -35.503906 39.71875 -37.765625 C 37.800781 -40.035156 35.085938 -41.171875 31.578125 -41.171875 C 28.003906 -41.171875 25.257812 -40.035156 23.34375 -37.765625 C 21.425781 -35.503906 20.46875 -32.425781 20.46875 -28.53125 Z M 20.46875 -28.53125 "/></g></g></g></g></g></g></g><g fill="#000000" fill-opacity="1"><g transform="translate(201.516966, 93.394313)"><g><path d="M 9.53125 -7.59375 C 9.53125 -6.945312 9.378906 -6.351562 9.078125 -5.8125 C 8.785156 -5.28125 8.328125 -4.847656 7.703125 -4.515625 C 7.085938 -4.191406 6.320312 -4.03125 5.40625 -4.03125 L 3.71875 -4.03125 L 3.71875 0 L 0.984375 0 L 0.984375 -11.203125 L 5.40625 -11.203125 C 6.300781 -11.203125 7.054688 -11.046875 7.671875 -10.734375 C 8.296875 -10.429688 8.757812 -10.007812 9.0625 -9.46875 C 9.375 -8.925781 9.53125 -8.300781 9.53125 -7.59375 Z M 5.203125 -6.203125 C 5.722656 -6.203125 6.109375 -6.320312 6.359375 -6.5625 C 6.617188 -6.8125 6.75 -7.15625 6.75 -7.59375 C 6.75 -8.039062 6.617188 -8.382812 6.359375 -8.625 C 6.109375 -8.875 5.722656 -9 5.203125 -9 L 3.71875 -9 L 3.71875 -6.203125 Z M 5.203125 -6.203125 "/></g></g></g><g fill="#000000" fill-opacity="1"><g transform="translate(211.124309, 93.394313)"><g><path d="M 3.71875 -11.203125 L 3.71875 0 L 0.984375 0 L 0.984375 -11.203125 Z M 3.71875 -11.203125 "/></g></g></g><g fill="#000000" fill-opacity="1"><g transform="translate(215.481062, 93.394313)"><g><path d="M 3.890625 -2.234375 L 8.71875 -2.234375 L 8.71875 0 L 0.796875 0 L 0.796875 -2.078125 L 5.59375 -8.96875 L 0.796875 -8.96875 L 0.796875 -11.203125 L 8.71875 -11.203125 L 8.71875 -9.140625 Z M 3.890625 -2.234375 "/></g></g></g><g fill="#000000" fill-opacity="1"><g transform="translate(224.641546, 93.394313)"><g><path d="M 3.890625 -2.234375 L 8.71875 -2.234375 L 8.71875 0 L 0.796875 0 L 0.796875 -2.078125 L 5.59375 -8.96875 L 0.796875 -8.96875 L 0.796875 -11.203125 L 8.71875 -11.203125 L 8.71875 -9.140625 Z M 3.890625 -2.234375 "/></g></g></g><g fill="#000000" fill-opacity="1"><g transform="translate(233.802029, 93.394313)"><g><path d="M 7.96875 -1.984375 L 3.78125 -1.984375 L 3.109375 0 L 0.25 0 L 4.3125 -11.203125 L 7.46875 -11.203125 L 11.53125 0 L 8.640625 0 Z M 7.265625 -4.09375 L 5.875 -8.1875 L 4.5 -4.09375 Z M 7.265625 -4.09375 "/></g></g></g></g></g></svg>